<?xml version="1.0" encoding="UTF-8"?>
<svg id="uuid-1a47adda-2ea6-4fd5-a6cd-e1f0fbba84fd" data-name="Layer_2" xmlns="http://www.w3.org/2000/svg" viewBox="0 0 274.92 160">
  <g id="uuid-0fff4abc-94eb-4214-b78d-6f362a06d13d" data-name="Layer_1">
    <g>
      <path d="M0,157.49v-3.24l.25-.12c10.52-5.01,19.67-16.47,27.22-34.06l3.66-8.41h10.55l-3.1,8.06c-6.61,16.62-4.82,28.21,5.3,34.44l.21.13v3.21H0Z"/>
      <path d="M43.65,154.53v2.51H.44v-2.51c9.6-4.57,19.2-15.09,27.43-34.29l3.54-8.14h9.61l-2.87,7.46c-7.54,18.97-3.43,29.49,5.49,34.98Z"/>
      <path d="M103.33,157.49v-3.27l.3-.1c2.69-.95,4.66-2.8,5.87-5.5,1.8-4.01,2.71-11.8-3.16-26.14l-4.45-10.81h28.5l4.66,11.16c7.14,17.09,13.02,25.29,22.46,31.35l.2.13v3.2h-54.38Z"/>
      <path d="M157.27,154.53v2.51h-53.49v-2.51c7.77-2.74,10.74-13.26,2.97-32.23l-4.2-10.2h27.54l4.55,10.89c7.54,18.06,13.72,25.83,22.63,31.55Z"/>
      <polygon points="115.23 75.39 87.13 75.39 87.13 74.5 113.89 74.5 83.13 .89 80.29 .89 68.16 28.13 67.34 27.77 79.71 0 83.73 0 115.23 75.39"/>
      <polyline points="67.75 27.95 80 .44 83.43 .44 114.56 74.94 87.13 74.94"/>
      <path d="M192.2,75.39l-.13-.11c-10.53-9.38-15.43-19.94-15.43-33.22,0-11.77,5.02-22.47,14.13-30.12C199.77,4.39,212.2.23,225.78.23c16.57,0,30.73,3.56,42.07,10.58l.21.13v35.21h-3.74l-.1-.31c-10.99-34.38-31.5-38.1-39.81-38.1-14.37,0-24.02,8.92-24.02,22.19,0,18.08,16.46,27.33,33.89,37.13,4.26,2.4,8.67,4.87,12.86,7.5l1.31.82h-56.24Z"/>
      <path d="M267.62,11.19v34.52h-2.97c-8.92-27.89-25.38-38.41-40.23-38.41s-24.46,9.83-24.46,22.63c0,22.84,25.73,31.7,46.95,45.01h-54.53c-8.96-7.98-15.28-18.15-15.28-32.89,0-24.23,21.03-41.38,48.69-41.38,18.75,0,32.23,4.57,41.84,10.52Z"/>
      <path d="M223.95,160c-16.69,0-31.65-3.91-45.71-11.95l-.22-.13v-36.28h3.53l.11.29c9.36,25.24,25.43,40.32,42.99,40.32.18,0,.36,0,.53,0,19.02,0,25.77-12.69,25.77-23.56,0-6.07-1.78-11.42-5.45-16.34l-.53-.71h29.76l.03.41c.11,1.25.16,2.54.16,3.84,0,12.66-4.67,23.55-13.49,31.51-9.15,8.24-22.11,12.6-37.47,12.6Z"/>
      <path d="M274.48,115.89c0,24.92-18.75,43.66-50.52,43.66-21.03,0-35.89-6.4-45.49-11.89v-35.58h2.78c10.06,27.15,26.73,40.61,43.4,40.61,17.83.23,26.75-10.97,26.75-24,0-6.57-2.07-11.95-5.53-16.6h28.46c.1,1.23.16,2.5.16,3.8Z"/>
    </g>
  </g>
</svg>