<?xml version="1.0" encoding="UTF-8"?>
<svg id="uuid-b2059b7a-6658-4b73-a2ef-e274fd9a92ad" data-name="Layer_2" xmlns="http://www.w3.org/2000/svg" viewBox="0 0 863.06 501.12">
  <defs>
    <style>
      .uuid-196843cc-e94f-4e28-afff-3aef49914b5f {
        fill: #fff;
      }
    </style>
  </defs>
  <g id="uuid-4c543677-bc3b-40b0-ac87-ce879c6f692f" data-name="Layer_1">
    <g id="uuid-131c3d77-3528-4dc9-8afb-2fb35d08286a" data-name="Origin">
      <g>
        <path class="uuid-196843cc-e94f-4e28-afff-3aef49914b5f" d="M136.08,485.28v7.92H0v-7.92c30.24-14.4,60.48-47.52,86.4-108l11.16-25.65h30.27l-9.03,23.49c-23.76,59.76-10.8,92.88,17.28,110.16Z"/>
        <path class="uuid-196843cc-e94f-4e28-afff-3aef49914b5f" d="M493.92,485.28v7.92h-168.48v-7.92c24.48-8.64,33.84-41.76,9.36-101.52l-13.23-32.13h86.74l14.33,34.29c23.76,56.88,43.2,81.36,71.28,99.36Z"/>
        <polyline class="uuid-196843cc-e94f-4e28-afff-3aef49914b5f" points="211.98 86.63 250.56 0 261.36 0 359.41 234.63 273.01 234.63"/>
        <path class="uuid-196843cc-e94f-4e28-afff-3aef49914b5f" d="M841.46,33.84v108.72h-9.36c-28.08-87.84-79.92-120.96-126.72-120.96s-77.04,30.96-77.04,71.28c0,71.92,81.04,99.84,147.88,141.75h-171.74c-28.22-25.14-48.14-57.16-48.14-103.59C556.34,54.72,622.58.72,709.7.72c59.04,0,101.52,14.4,131.76,33.12Z"/>
        <path class="uuid-196843cc-e94f-4e28-afff-3aef49914b5f" d="M863.06,363.6c0,78.48-59.04,137.52-159.12,137.52-66.24,0-113.04-20.16-143.28-37.44v-112.05h8.74c31.69,85.5,84.2,127.89,136.7,127.89,56.16.72,84.24-34.56,84.24-75.6,0-20.7-6.53-37.65-17.43-52.29h89.65c.33,3.88.5,7.87.5,11.97Z"/>
      </g>
      <g>
        <path class="uuid-196843cc-e94f-4e28-afff-3aef49914b5f" d="M106.54,321.98l23.42-57.49h6.06l23.42,57.49h-7.61l-6.87-17.32h-24.04l-6.87,17.32h-7.52ZM132.92,273.42c-2.56,7.16-5.01,13.66-7.35,19.51l-2.15,5.41h19.06l-2.18-5.41c-2.36-5.95-4.76-12.46-7.21-19.51h-.17Z"/>
        <path class="uuid-196843cc-e94f-4e28-afff-3aef49914b5f" d="M223.5,292.24c1.78.26,3.37.73,4.79,1.42s2.63,1.57,3.65,2.64c1.02,1.07,1.8,2.35,2.34,3.82.54,1.48.82,3.16.82,5.05,0,1.35-.2,2.76-.6,4.23-.4,1.48-1.06,2.91-1.98,4.3-.92,1.39-2.12,2.67-3.61,3.85-1.49,1.17-3.34,2.13-5.55,2.88-1.7.57-3.58.97-5.65,1.2-2.07.23-4.55.34-7.44.34h-14.71v-57.49h14.19c1.3,0,2.48.02,3.55.06,1.06.04,2.04.11,2.93.19.89.09,1.72.19,2.48.32.77.13,1.49.28,2.17.45,1.78.49,3.41,1.15,4.86,2,1.46.85,2.7,1.85,3.72,3.03,1.02,1.17,1.8,2.51,2.36,4,.55,1.49.83,3.11.83,4.86,0,1.4-.17,2.75-.49,4.04-.33,1.29-.86,2.48-1.59,3.57-.73,1.09-1.68,2.06-2.84,2.92s-2.57,1.58-4.23,2.15v.17ZM213.23,289.36c1.38,0,2.56-.06,3.57-.19,1-.13,1.9-.32,2.71-.58,2.15-.72,3.72-1.83,4.71-3.35.99-1.52,1.48-3.31,1.48-5.37s-.52-3.85-1.55-5.2c-1.03-1.35-2.65-2.35-4.86-3.01-1.09-.31-2.35-.54-3.78-.67-1.43-.13-3.12-.19-5.07-.19h-7.86v18.56h10.66ZM202.58,295.68v19.98h8.46c2,0,3.87-.09,5.59-.28,1.72-.19,3.18-.48,4.38-.88,1.32-.43,2.43-.98,3.35-1.65.92-.67,1.65-1.42,2.21-2.23s.96-1.68,1.2-2.6c.24-.92.37-1.85.37-2.79,0-1.09-.13-2.11-.39-3.07-.26-.96-.68-1.82-1.27-2.58-.59-.76-1.36-1.42-2.32-2-.96-.57-2.16-1.02-3.59-1.33-.86-.2-1.84-.34-2.94-.43-1.1-.09-2.47-.13-4.1-.13h-10.96Z"/>
        <path class="uuid-196843cc-e94f-4e28-afff-3aef49914b5f" d="M302.62,292.24c1.78.26,3.37.73,4.79,1.42s2.63,1.57,3.65,2.64c1.02,1.07,1.8,2.35,2.34,3.82.54,1.48.82,3.16.82,5.05,0,1.35-.2,2.76-.6,4.23-.4,1.48-1.06,2.91-1.98,4.3-.92,1.39-2.12,2.67-3.61,3.85-1.49,1.17-3.34,2.13-5.55,2.88-1.7.57-3.59.97-5.65,1.2-2.07.23-4.55.34-7.44.34h-14.71v-57.49h14.19c1.3,0,2.48.02,3.55.06s2.04.11,2.93.19c.89.09,1.72.19,2.48.32s1.49.28,2.17.45c1.78.49,3.41,1.15,4.86,2,1.46.85,2.7,1.85,3.72,3.03,1.02,1.17,1.8,2.51,2.36,4,.55,1.49.83,3.11.83,4.86,0,1.4-.17,2.75-.49,4.04-.33,1.29-.86,2.48-1.59,3.57-.73,1.09-1.68,2.06-2.84,2.92s-2.57,1.58-4.23,2.15v.17ZM292.35,289.36c1.38,0,2.56-.06,3.57-.19,1-.13,1.9-.32,2.71-.58,2.15-.72,3.72-1.83,4.71-3.35.99-1.52,1.48-3.31,1.48-5.37s-.52-3.85-1.55-5.2c-1.03-1.35-2.65-2.35-4.86-3.01-1.09-.31-2.35-.54-3.78-.67-1.43-.13-3.12-.19-5.07-.19h-7.86v18.56h10.66ZM281.69,295.68v19.98h8.46c2,0,3.87-.09,5.59-.28,1.72-.19,3.18-.48,4.38-.88,1.32-.43,2.43-.98,3.35-1.65.92-.67,1.65-1.42,2.21-2.23s.96-1.68,1.2-2.6c.24-.92.37-1.85.37-2.79,0-1.09-.13-2.11-.39-3.07-.26-.96-.68-1.82-1.27-2.58-.59-.76-1.36-1.42-2.32-2-.96-.57-2.16-1.02-3.59-1.33-.86-.2-1.84-.34-2.94-.43-1.1-.09-2.47-.13-4.1-.13h-10.96Z"/>
        <path class="uuid-196843cc-e94f-4e28-afff-3aef49914b5f" d="M346.84,321.98l23.42-57.49h6.06l23.42,57.49h-7.61l-6.87-17.32h-24.04l-6.87,17.32h-7.52ZM373.22,273.42c-2.56,7.16-5.01,13.66-7.35,19.51l-2.15,5.41h19.05l-2.18-5.41c-2.36-5.95-4.76-12.46-7.21-19.51h-.17Z"/>
      </g>
      <g>
        <path class="uuid-196843cc-e94f-4e28-afff-3aef49914b5f" d="M504.92,279.69c0,1.69.34,3.09,1.03,4.19.69,1.1,1.61,2.01,2.76,2.73,1.16.72,2.5,1.3,4.03,1.76,1.53.46,3.12.89,4.78,1.29,2.23.54,4.42,1.15,6.58,1.8,2.16.66,4.08,1.57,5.76,2.73s3.05,2.67,4.09,4.53c1.04,1.86,1.56,4.25,1.56,7.18s-.56,5.55-1.69,7.71c-1.13,2.16-2.69,3.94-4.68,5.33-1.99,1.39-4.35,2.42-7.07,3.09-2.72.67-5.7,1.01-8.94,1.01-1.49,0-3.01-.09-4.58-.28-1.56-.19-3.05-.44-4.47-.75s-2.7-.67-3.85-1.07c-1.15-.4-2.05-.8-2.71-1.2v-6.4c1.03.52,2.19.99,3.48,1.42s2.62.79,4,1.1,2.76.54,4.17.71c1.4.17,2.72.26,3.95.26,2.01,0,3.92-.17,5.74-.52,1.82-.34,3.42-.92,4.79-1.72,1.38-.8,2.46-1.9,3.27-3.29.8-1.39,1.2-3.13,1.2-5.22,0-1.72-.35-3.14-1.05-4.25-.7-1.12-1.64-2.04-2.81-2.77-1.17-.73-2.53-1.32-4.06-1.78-1.53-.46-3.14-.89-4.83-1.29-2.23-.52-4.42-1.1-6.55-1.74-2.13-.64-4.04-1.54-5.71-2.69-1.68-1.15-3.02-2.62-4.04-4.43-1.02-1.8-1.53-4.11-1.53-6.92s.53-5.44,1.6-7.54c1.07-2.11,2.51-3.85,4.34-5.22,1.82-1.38,3.93-2.39,6.3-3.05,2.38-.66,4.91-.99,7.61-.99,3.07,0,5.92.29,8.57.88,2.65.59,5.08,1.35,7.28,2.3v6.49c-2.38-1-4.83-1.82-7.37-2.45-2.54-.63-5.25-.96-8.14-.99-2.18,0-4.07.24-5.67.71-1.6.47-2.94,1.15-4,2.02-1.06.87-1.85,1.93-2.36,3.18s-.77,2.63-.77,4.15Z"/>
        <path class="uuid-196843cc-e94f-4e28-afff-3aef49914b5f" d="M581.4,289.36h30.12v-24.88h7v57.49h-7v-26.3h-30.12v26.3h-7v-57.49h7v24.88Z"/>
        <path class="uuid-196843cc-e94f-4e28-afff-3aef49914b5f" d="M711.57,293.27c0,4.35-.63,8.35-1.88,11.99-1.25,3.64-3.04,6.77-5.37,9.41-2.33,2.64-5.14,4.69-8.42,6.17-3.28,1.48-6.96,2.21-11.02,2.21s-7.97-.74-11.3-2.21c-3.32-1.48-6.14-3.53-8.44-6.17-2.3-2.64-4.06-5.77-5.29-9.41-1.22-3.64-1.83-7.63-1.83-11.99s.63-8.4,1.9-12.05,3.05-6.8,5.37-9.43c2.32-2.64,5.12-4.69,8.42-6.17,3.3-1.48,6.99-2.21,11.08-2.21s7.92.74,11.23,2.21c3.31,1.48,6.12,3.53,8.42,6.17,2.3,2.64,4.06,5.78,5.29,9.43s1.83,7.67,1.83,12.05ZM704.61,293.27c0-3.87-.51-7.28-1.52-10.23-1.01-2.95-2.41-5.41-4.19-7.39-1.78-1.98-3.88-3.47-6.3-4.49-2.42-1.02-5.02-1.53-7.8-1.53s-5.38.51-7.8,1.53c-2.42,1.02-4.52,2.51-6.3,4.49-1.78,1.98-3.18,4.44-4.19,7.39-1.01,2.95-1.52,6.36-1.52,10.23s.51,7.27,1.54,10.21c1.03,2.94,2.43,5.39,4.21,7.37,1.78,1.98,3.88,3.47,6.3,4.47,2.42,1,5.03,1.5,7.84,1.5s5.36-.5,7.75-1.5c2.39-1,4.47-2.49,6.26-4.47,1.78-1.98,3.18-4.43,4.19-7.37,1.01-2.94,1.52-6.34,1.52-10.21Z"/>
        <path class="uuid-196843cc-e94f-4e28-afff-3aef49914b5f" d="M758.22,315.66h29.48v6.32h-36.48v-57.49h34.89v6.32h-27.89v18.56h24.79v6.32h-24.79v19.98Z"/>
        <path class="uuid-196843cc-e94f-4e28-afff-3aef49914b5f" d="M831.87,279.69c0,1.69.34,3.09,1.03,4.19.68,1.1,1.61,2.01,2.76,2.73,1.16.72,2.5,1.3,4.03,1.76,1.53.46,3.12.89,4.78,1.29,2.23.54,4.42,1.15,6.58,1.8,2.16.66,4.08,1.57,5.76,2.73,1.68,1.16,3.05,2.67,4.09,4.53,1.04,1.86,1.56,4.25,1.56,7.18s-.56,5.55-1.69,7.71c-1.13,2.16-2.69,3.94-4.68,5.33-1.99,1.39-4.35,2.42-7.07,3.09-2.72.67-5.7,1.01-8.94,1.01-1.49,0-3.02-.09-4.58-.28-1.56-.19-3.05-.44-4.47-.75s-2.7-.67-3.85-1.07c-1.15-.4-2.05-.8-2.71-1.2v-6.4c1.03.52,2.19.99,3.48,1.42s2.62.79,4,1.1,2.76.54,4.17.71c1.4.17,2.72.26,3.95.26,2,0,3.92-.17,5.74-.52,1.82-.34,3.42-.92,4.79-1.72,1.38-.8,2.46-1.9,3.27-3.29.8-1.39,1.2-3.13,1.2-5.22,0-1.72-.35-3.14-1.05-4.25-.7-1.12-1.64-2.04-2.81-2.77-1.17-.73-2.53-1.32-4.06-1.78-1.53-.46-3.14-.89-4.83-1.29-2.23-.52-4.42-1.1-6.55-1.74-2.13-.64-4.04-1.54-5.71-2.69-1.68-1.15-3.02-2.62-4.04-4.43-1.02-1.8-1.53-4.11-1.53-6.92s.53-5.44,1.6-7.54c1.07-2.11,2.51-3.85,4.34-5.22s3.93-2.39,6.3-3.05c2.38-.66,4.91-.99,7.61-.99,3.06,0,5.92.29,8.57.88,2.65.59,5.08,1.35,7.28,2.3v6.49c-2.38-1-4.83-1.82-7.37-2.45-2.54-.63-5.25-.96-8.14-.99-2.18,0-4.07.24-5.67.71-1.6.47-2.94,1.15-4,2.02-1.06.87-1.85,1.93-2.36,3.18s-.77,2.63-.77,4.15Z"/>
      </g>
    </g>
  </g>
</svg>