<?xml version="1.0" encoding="UTF-8"?>
<svg id="uuid-b3b7e8c7-73b1-444d-9a64-1bb49a1c8432" data-name="Layer_2" xmlns="http://www.w3.org/2000/svg" viewBox="0 0 865.86 503.92">
  <g id="uuid-52a7a9c0-f925-4520-aef8-2c18d9fe0710" data-name="Layer_1">
    <g id="uuid-56463e92-d9f9-4b4e-9950-bd95b05ecf0f" data-name="Origin">
      <g>
        <path d="M0,496v-10.2l.8-.38c33.13-15.77,61.97-51.87,85.72-107.29l11.53-26.5h33.23l-9.76,25.39c-20.81,52.35-15.19,88.84,16.71,108.46l.67.41v10.1H0Z"/>
        <path d="M137.48,486.68v7.92H1.4v-7.92c30.24-14.4,60.48-47.52,86.4-108l11.16-25.65h30.27l-9.03,23.49c-23.76,59.76-10.8,92.88,17.28,110.16Z"/>
        <path d="M325.44,496v-10.31l.93-.33c8.46-2.98,14.68-8.82,18.5-17.33,5.66-12.64,8.53-37.18-9.97-82.34l-14.02-34.06h89.76l14.69,35.15c22.48,53.82,40.99,79.65,70.74,98.72l.64.41v10.09h-171.28Z"/>
        <path d="M495.32,486.68v7.92h-168.48v-7.92c24.48-8.64,33.84-41.76,9.36-101.52l-13.23-32.13h86.74l14.33,34.29c23.76,56.88,43.2,81.36,71.28,99.36Z"/>
        <polygon points="362.91 237.43 274.41 237.43 274.41 234.63 358.71 234.63 261.83 2.8 252.87 2.8 214.66 88.6 212.1 87.46 251.05 0 263.69 0 362.91 237.43"/>
        <polyline points="213.38 88.03 251.96 1.4 262.76 1.4 360.81 236.03 274.41 236.03"/>
        <path d="M605.35,237.43l-.4-.35c-33.16-29.54-48.61-62.79-48.61-104.64,0-37.08,15.81-70.76,44.51-94.85C629.17,13.81,668.33.72,711.1.72c52.19,0,96.77,11.21,132.5,33.33l.66.41v110.9h-11.78l-.31-.97c-34.62-108.29-99.22-119.99-125.39-119.99-45.24,0-75.64,28.08-75.64,69.88,0,56.93,51.85,86.08,106.74,116.95,13.42,7.54,27.29,15.34,40.49,23.62l4.12,2.59h-177.14Z"/>
        <path d="M842.86,35.24v108.72h-9.36c-28.08-87.84-79.92-120.96-126.72-120.96s-77.04,30.96-77.04,71.28c0,71.92,81.04,99.84,147.88,141.75h-171.74c-28.22-25.14-48.14-57.16-48.14-103.59,0-76.32,66.24-130.32,153.36-130.32,59.04,0,101.52,14.4,131.76,33.12Z"/>
        <path d="M705.34,503.92c-52.58,0-99.67-12.31-143.97-37.62l-.71-.4v-114.26h11.11l.34.91c29.47,79.51,80.08,126.98,135.39,126.98.57,0,1.13.01,1.68.01,59.9,0,81.16-39.98,81.16-74.21,0-19.12-5.61-35.95-17.15-51.45l-1.66-2.24h93.72l.11,1.28c.33,3.94.5,8.01.5,12.09,0,39.87-14.69,74.18-42.49,99.23-28.82,25.97-69.63,39.69-118.03,39.69Z"/>
        <path d="M864.46,365c0,78.48-59.04,137.52-159.12,137.52-66.24,0-113.04-20.16-143.28-37.44v-112.05h8.74c31.69,85.5,84.2,127.89,136.7,127.89,56.16.72,84.24-34.56,84.24-75.6,0-20.7-6.53-37.65-17.43-52.29h89.65c.33,3.88.5,7.87.5,11.97Z"/>
      </g>
      <g>
        <path d="M152.75,324.08l-6.87-17.32h-23.09l-6.87,17.32h-9.04l23.99-58.89h7l23.99,58.89h-9.12ZM142.84,299.04l-1.79-4.45c-2.17-5.48-4.41-11.5-6.65-17.92-2.35,6.51-4.63,12.53-6.77,17.91l-1.77,4.45h16.99Z"/>
        <path d="M107.94,323.38l23.42-57.49h6.06l23.42,57.49h-7.61l-6.87-17.32h-24.04l-6.87,17.32h-7.52ZM134.32,274.82c-2.56,7.16-5.01,13.66-7.35,19.51l-2.15,5.41h19.06l-2.18-5.41c-2.36-5.95-4.76-12.46-7.21-19.51h-.17Z"/>
        <path d="M196.27,324.08v-58.89h14.89c1.31,0,2.51.02,3.57.07,1.07.04,2.07.11,2.97.2.91.09,1.76.2,2.53.33.78.13,1.53.29,2.22.46,1.85.5,3.54,1.2,5.04,2.07,1.52.88,2.83,1.95,3.89,3.18,1.07,1.23,1.91,2.65,2.48,4.21.58,1.56.87,3.28.87,5.1,0,1.45-.17,2.87-.52,4.21-.35,1.36-.92,2.64-1.69,3.78-.77,1.15-1.78,2.19-3,3.09-.74.54-1.57,1.04-2.5,1.47,1.05.27,2.04.63,2.95,1.07,1.49.72,2.78,1.66,3.86,2.79,1.08,1.14,1.92,2.51,2.49,4.06.57,1.55.86,3.33.86,5.29,0,1.4-.21,2.88-.62,4.41-.41,1.54-1.11,3.05-2.07,4.5-.96,1.45-2.23,2.8-3.76,4.01-1.54,1.22-3.48,2.23-5.76,2.99-1.74.59-3.69,1-5.8,1.24-2.08.23-4.61.35-7.51.35h-15.41ZM212.44,316.36c1.97,0,3.83-.09,5.51-.27,1.66-.18,3.09-.47,4.24-.85,1.24-.41,2.31-.93,3.16-1.55.85-.62,1.54-1.32,2.05-2.07.51-.75.88-1.55,1.1-2.38.23-.86.34-1.74.34-2.61,0-1.02-.12-1.99-.36-2.89-.23-.86-.62-1.65-1.15-2.33-.53-.69-1.25-1.3-2.13-1.82-.89-.53-2.03-.95-3.38-1.25-.83-.19-1.79-.33-2.85-.42-1.08-.08-2.44-.13-4.05-.13h-10.26v18.58h7.76ZM214.63,290.06c1.34,0,2.51-.06,3.48-.19.96-.12,1.82-.31,2.58-.55,1.98-.66,3.44-1.69,4.33-3.07.91-1.4,1.37-3.07,1.37-4.99s-.47-3.56-1.4-4.77c-.93-1.22-2.45-2.15-4.5-2.76-1.04-.3-2.26-.52-3.64-.64-1.41-.13-3.09-.19-5.01-.19h-7.16v17.16h9.96Z"/>
        <path d="M224.9,293.64c1.78.26,3.37.73,4.79,1.42s2.63,1.57,3.65,2.64c1.02,1.07,1.8,2.35,2.34,3.82.54,1.48.82,3.16.82,5.05,0,1.35-.2,2.76-.6,4.23-.4,1.48-1.06,2.91-1.98,4.3-.92,1.39-2.12,2.67-3.61,3.85-1.49,1.17-3.34,2.13-5.55,2.88-1.7.57-3.58.97-5.65,1.2-2.07.23-4.55.34-7.44.34h-14.71v-57.49h14.19c1.3,0,2.48.02,3.55.06,1.06.04,2.04.11,2.93.19.89.09,1.72.19,2.48.32.77.13,1.49.28,2.17.45,1.78.49,3.41,1.15,4.86,2,1.46.85,2.7,1.85,3.72,3.03,1.02,1.17,1.8,2.51,2.36,4,.55,1.49.83,3.11.83,4.86,0,1.4-.17,2.75-.49,4.04-.33,1.29-.86,2.48-1.59,3.57-.73,1.09-1.68,2.06-2.84,2.92s-2.57,1.58-4.23,2.15v.17ZM214.63,290.76c1.38,0,2.56-.06,3.57-.19,1-.13,1.9-.32,2.71-.58,2.15-.72,3.72-1.83,4.71-3.35.99-1.52,1.48-3.31,1.48-5.37s-.52-3.85-1.55-5.2c-1.03-1.35-2.65-2.35-4.86-3.01-1.09-.31-2.35-.54-3.78-.67-1.43-.13-3.12-.19-5.07-.19h-7.86v18.56h10.66ZM203.98,297.08v19.98h8.46c2,0,3.87-.09,5.59-.28,1.72-.19,3.18-.48,4.38-.88,1.32-.43,2.43-.98,3.35-1.65.92-.67,1.65-1.42,2.21-2.23s.96-1.68,1.2-2.6c.24-.92.37-1.85.37-2.79,0-1.09-.13-2.11-.39-3.07-.26-.96-.68-1.82-1.27-2.58-.59-.76-1.36-1.42-2.32-2-.96-.57-2.16-1.02-3.59-1.33-.86-.2-1.84-.34-2.94-.43-1.1-.09-2.47-.13-4.1-.13h-10.96Z"/>
        <path d="M275.39,324.08v-58.89h14.89c1.3,0,2.51.02,3.57.07,1.07.04,2.07.11,2.97.2.9.09,1.76.2,2.53.33.78.13,1.53.29,2.22.46,1.85.5,3.54,1.2,5.04,2.07,1.52.88,2.83,1.95,3.89,3.18,1.07,1.23,1.91,2.65,2.48,4.21.58,1.56.87,3.28.87,5.1,0,1.45-.17,2.87-.52,4.21-.35,1.36-.92,2.64-1.69,3.78-.77,1.15-1.78,2.19-3,3.09-.74.55-1.57,1.04-2.5,1.47,1.05.27,2.04.63,2.95,1.07,1.49.72,2.78,1.66,3.86,2.79,1.08,1.14,1.91,2.5,2.49,4.06.57,1.55.86,3.33.86,5.29,0,1.4-.21,2.88-.62,4.41-.41,1.54-1.11,3.06-2.07,4.5-.96,1.44-2.22,2.79-3.76,4.01-1.54,1.22-3.48,2.23-5.76,2.99-1.74.59-3.69,1-5.8,1.24-2.08.23-4.61.35-7.52.35h-15.41ZM291.56,316.36c1.97,0,3.83-.09,5.51-.27,1.66-.18,3.09-.47,4.24-.85,1.25-.41,2.31-.93,3.16-1.55.85-.62,1.54-1.32,2.05-2.07.51-.75.88-1.55,1.1-2.38.23-.85.34-1.73.34-2.61,0-1.02-.12-1.99-.36-2.89-.23-.86-.62-1.65-1.15-2.33-.53-.69-1.25-1.3-2.13-1.83-.89-.53-2.03-.95-3.38-1.25-.83-.19-1.79-.33-2.85-.42-1.08-.08-2.44-.13-4.05-.13h-10.26v18.58h7.76ZM293.75,290.06c1.34,0,2.51-.06,3.48-.19.96-.12,1.82-.31,2.58-.55,1.98-.66,3.44-1.69,4.33-3.07.91-1.4,1.37-3.07,1.37-4.99s-.47-3.56-1.4-4.77c-.93-1.22-2.45-2.15-4.5-2.76-1.04-.3-2.26-.52-3.64-.64-1.4-.13-3.09-.19-5.01-.19h-7.16v17.16h9.96Z"/>
        <path d="M304.02,293.64c1.78.26,3.37.73,4.79,1.42s2.63,1.57,3.65,2.64c1.02,1.07,1.8,2.35,2.34,3.82.54,1.48.82,3.16.82,5.05,0,1.35-.2,2.76-.6,4.23-.4,1.48-1.06,2.91-1.98,4.3-.92,1.39-2.12,2.67-3.61,3.85-1.49,1.17-3.34,2.13-5.55,2.88-1.7.57-3.59.97-5.65,1.2-2.07.23-4.55.34-7.44.34h-14.71v-57.49h14.19c1.3,0,2.48.02,3.55.06s2.04.11,2.93.19c.89.09,1.72.19,2.48.32s1.49.28,2.17.45c1.78.49,3.41,1.15,4.86,2,1.46.85,2.7,1.85,3.72,3.03,1.02,1.17,1.8,2.51,2.36,4,.55,1.49.83,3.11.83,4.86,0,1.4-.17,2.75-.49,4.04-.33,1.29-.86,2.48-1.59,3.57-.73,1.09-1.68,2.06-2.84,2.92s-2.57,1.58-4.23,2.15v.17ZM293.75,290.76c1.38,0,2.56-.06,3.57-.19,1-.13,1.9-.32,2.71-.58,2.15-.72,3.72-1.83,4.71-3.35.99-1.52,1.48-3.31,1.48-5.37s-.52-3.85-1.55-5.2c-1.03-1.35-2.65-2.35-4.86-3.01-1.09-.31-2.35-.54-3.78-.67-1.43-.13-3.12-.19-5.07-.19h-7.86v18.56h10.66ZM283.09,297.08v19.98h8.46c2,0,3.87-.09,5.59-.28,1.72-.19,3.18-.48,4.38-.88,1.32-.43,2.43-.98,3.35-1.65.92-.67,1.65-1.42,2.21-2.23s.96-1.68,1.2-2.6c.24-.92.37-1.85.37-2.79,0-1.09-.13-2.11-.39-3.07-.26-.96-.68-1.82-1.27-2.58-.59-.76-1.36-1.42-2.32-2-.96-.57-2.16-1.02-3.59-1.33-.86-.2-1.84-.34-2.94-.43-1.1-.09-2.47-.13-4.1-.13h-10.96Z"/>
        <path d="M393.05,324.08l-6.87-17.32h-23.09l-6.87,17.32h-9.04l23.99-58.89h7l23.99,58.89h-9.12ZM383.14,299.04l-1.79-4.45c-2.17-5.48-4.41-11.5-6.65-17.92-2.35,6.5-4.62,12.52-6.78,17.91l-1.77,4.45h16.99Z"/>
        <path d="M348.24,323.38l23.42-57.49h6.06l23.42,57.49h-7.61l-6.87-17.32h-24.04l-6.87,17.32h-7.52ZM374.62,274.82c-2.56,7.16-5.01,13.66-7.35,19.51l-2.15,5.41h19.05l-2.18-5.41c-2.36-5.95-4.76-12.46-7.21-19.51h-.17Z"/>
      </g>
      <g>
        <path d="M514.53,325.15c-1.51,0-3.08-.1-4.66-.28-1.58-.19-3.11-.45-4.54-.76-1.44-.32-2.76-.69-3.93-1.1-1.2-.42-2.13-.84-2.84-1.27l-.34-.2v-7.93l1.01.51c1,.5,2.14.96,3.39,1.38,1.26.42,2.58.78,3.92,1.08,1.35.29,2.73.53,4.1.7,1.37.17,2.67.25,3.87.25,1.95,0,3.84-.17,5.61-.5,1.73-.33,3.27-.88,4.57-1.64,1.26-.74,2.28-1.76,3.01-3.03.74-1.27,1.11-2.91,1.11-4.87,0-1.58-.32-2.88-.95-3.88-.64-1.02-1.51-1.88-2.59-2.55-1.12-.69-2.42-1.27-3.89-1.71-1.51-.45-3.13-.88-4.79-1.28-2.23-.52-4.45-1.1-6.59-1.75-2.19-.66-4.18-1.6-5.91-2.78-1.76-1.2-3.19-2.77-4.25-4.66-1.07-1.9-1.62-4.35-1.62-7.26s.57-5.66,1.68-7.86c1.11-2.19,2.64-4.03,4.54-5.46,1.89-1.42,4.08-2.49,6.54-3.17,2.43-.67,5.05-1.01,7.79-1.01,3.1,0,6.04.3,8.72.9,2.68.59,5.17,1.38,7.41,2.34l.42.18v8l-.97-.41c-2.33-.98-4.78-1.8-7.27-2.42-2.47-.61-5.16-.94-7.98-.97-2.09,0-3.93.23-5.47.68-1.5.44-2.77,1.08-3.75,1.89-.97.8-1.69,1.77-2.16,2.91-.48,1.16-.72,2.46-.72,3.88,0,1.55.31,2.83.92,3.82.63,1.01,1.48,1.85,2.54,2.5,1.1.68,2.4,1.25,3.86,1.69,1.5.45,3.1.88,4.74,1.28,2.23.55,4.46,1.16,6.62,1.82,2.22.68,4.22,1.63,5.96,2.82,1.77,1.22,3.22,2.82,4.31,4.77,1.1,1.96,1.65,4.49,1.65,7.52s-.6,5.78-1.77,8.04-2.83,4.13-4.9,5.58c-2.06,1.43-4.51,2.51-7.3,3.2-2.76.68-5.83,1.03-9.11,1.03Z"/>
        <path d="M506.32,281.09c0,1.69.34,3.09,1.03,4.19.69,1.1,1.61,2.01,2.76,2.73,1.16.72,2.5,1.3,4.03,1.76,1.53.46,3.12.89,4.78,1.29,2.23.54,4.42,1.15,6.58,1.8,2.16.66,4.08,1.57,5.76,2.73s3.05,2.67,4.09,4.53c1.04,1.86,1.56,4.25,1.56,7.18s-.56,5.55-1.69,7.71c-1.13,2.16-2.69,3.94-4.68,5.33-1.99,1.39-4.35,2.42-7.07,3.09-2.72.67-5.7,1.01-8.94,1.01-1.49,0-3.01-.09-4.58-.28-1.56-.19-3.05-.44-4.47-.75s-2.7-.67-3.85-1.07c-1.15-.4-2.05-.8-2.71-1.2v-6.4c1.03.52,2.19.99,3.48,1.42s2.62.79,4,1.1,2.76.54,4.17.71c1.4.17,2.72.26,3.95.26,2.01,0,3.92-.17,5.74-.52,1.82-.34,3.42-.92,4.79-1.72,1.38-.8,2.46-1.9,3.27-3.29.8-1.39,1.2-3.13,1.2-5.22,0-1.72-.35-3.14-1.05-4.25-.7-1.12-1.64-2.04-2.81-2.77-1.17-.73-2.53-1.32-4.06-1.78-1.53-.46-3.14-.89-4.83-1.29-2.23-.52-4.42-1.1-6.55-1.74-2.13-.64-4.04-1.54-5.71-2.69-1.68-1.15-3.02-2.62-4.04-4.43-1.02-1.8-1.53-4.11-1.53-6.92s.53-5.44,1.6-7.54c1.07-2.11,2.51-3.85,4.34-5.22,1.82-1.38,3.93-2.39,6.3-3.05,2.38-.66,4.91-.99,7.61-.99,3.07,0,5.92.29,8.57.88,2.65.59,5.08,1.35,7.28,2.3v6.49c-2.38-1-4.83-1.82-7.37-2.45-2.54-.63-5.25-.96-8.14-.99-2.18,0-4.07.24-5.67.71-1.6.47-2.94,1.15-4,2.02-1.06.87-1.85,1.93-2.36,3.18s-.77,2.63-.77,4.15Z"/>
        <polygon points="612.22 324.08 612.22 297.78 583.5 297.78 583.5 324.08 575.1 324.08 575.1 265.18 583.5 265.18 583.5 290.06 612.22 290.06 612.22 265.18 620.63 265.18 620.63 324.08 612.22 324.08"/>
        <path d="M582.8,290.76h30.12v-24.88h7v57.49h-7v-26.3h-30.12v26.3h-7v-57.49h7v24.88Z"/>
        <path d="M686.29,325.15c-4.28,0-8.18-.77-11.58-2.27-3.41-1.51-6.33-3.65-8.68-6.35-2.35-2.69-4.18-5.94-5.42-9.65-1.24-3.69-1.87-7.8-1.87-12.21s.65-8.57,1.94-12.28c1.29-3.72,3.14-6.97,5.51-9.66,2.37-2.7,5.29-4.83,8.66-6.34,3.37-1.51,7.2-2.27,11.37-2.27s8.13.77,11.52,2.27c3.39,1.51,6.3,3.65,8.66,6.34,2.35,2.69,4.18,5.95,5.42,9.67,1.24,3.71,1.87,7.84,1.87,12.27s-.64,8.52-1.91,12.22c-1.27,3.71-3.13,6.95-5.51,9.65-2.38,2.7-5.3,4.83-8.66,6.34-3.36,1.51-7.16,2.27-11.31,2.27ZM686.2,271.74c-2.67,0-5.2.49-7.53,1.47-2.31.97-4.35,2.42-6.05,4.31-1.71,1.9-3.07,4.3-4.05,7.15-.98,2.86-1.48,6.23-1.48,10s.51,7.13,1.5,9.97c.99,2.83,2.36,5.23,4.07,7.13,1.7,1.89,3.74,3.33,6.05,4.29,2.32.96,4.87,1.45,7.57,1.45s5.19-.49,7.48-1.45c2.28-.96,4.3-2.4,6.01-4.29,1.71-1.9,3.07-4.3,4.05-7.13.98-2.85,1.48-6.21,1.48-9.98s-.5-7.14-1.48-10c-.98-2.85-2.34-5.25-4.05-7.15-1.7-1.89-3.74-3.34-6.05-4.31-2.32-.98-4.85-1.47-7.53-1.47Z"/>
        <path d="M712.97,294.67c0,4.35-.63,8.35-1.88,11.99-1.25,3.64-3.04,6.77-5.37,9.41-2.33,2.64-5.14,4.69-8.42,6.17-3.28,1.48-6.96,2.21-11.02,2.21s-7.97-.74-11.3-2.21c-3.32-1.48-6.14-3.53-8.44-6.17-2.3-2.64-4.06-5.77-5.29-9.41-1.22-3.64-1.83-7.63-1.83-11.99s.63-8.4,1.9-12.05,3.05-6.8,5.37-9.43c2.32-2.64,5.12-4.69,8.42-6.17,3.3-1.48,6.99-2.21,11.08-2.21s7.92.74,11.23,2.21c3.31,1.48,6.12,3.53,8.42,6.17,2.3,2.64,4.06,5.78,5.29,9.43s1.83,7.67,1.83,12.05ZM706.01,294.67c0-3.87-.51-7.28-1.52-10.23-1.01-2.95-2.41-5.41-4.19-7.39-1.78-1.98-3.88-3.47-6.3-4.49-2.42-1.02-5.02-1.53-7.8-1.53s-5.38.51-7.8,1.53c-2.42,1.02-4.52,2.51-6.3,4.49-1.78,1.98-3.18,4.44-4.19,7.39-1.01,2.95-1.52,6.36-1.52,10.23s.51,7.27,1.54,10.21c1.03,2.94,2.43,5.39,4.21,7.37,1.78,1.98,3.88,3.47,6.3,4.47,2.42,1,5.03,1.5,7.84,1.5s5.36-.5,7.75-1.5c2.39-1,4.47-2.49,6.26-4.47,1.78-1.98,3.18-4.43,4.19-7.37,1.01-2.94,1.52-6.34,1.52-10.21Z"/>
        <polygon points="751.91 324.08 751.91 265.18 788.2 265.18 788.2 272.9 760.32 272.9 760.32 290.06 785.11 290.06 785.11 297.78 760.32 297.78 760.32 316.36 789.79 316.36 789.79 324.08 751.91 324.08"/>
        <path d="M759.62,317.06h29.48v6.32h-36.48v-57.49h34.89v6.32h-27.89v18.56h24.79v6.32h-24.79v19.98Z"/>
        <path d="M841.48,325.15c-1.51,0-3.08-.1-4.66-.28-1.58-.19-3.1-.45-4.54-.76-1.44-.32-2.76-.69-3.93-1.1-1.2-.42-2.13-.84-2.84-1.27l-.34-.2v-7.93l1.01.51c1,.5,2.14.96,3.39,1.38,1.26.42,2.58.78,3.92,1.08,1.35.29,2.73.53,4.1.7,1.37.17,2.67.25,3.87.25,1.95,0,3.84-.17,5.61-.5,1.73-.33,3.27-.88,4.57-1.64,1.26-.74,2.27-1.76,3.01-3.03.74-1.28,1.11-2.91,1.11-4.87,0-1.58-.32-2.88-.95-3.88-.64-1.02-1.51-1.88-2.59-2.55-1.12-.69-2.43-1.27-3.89-1.71-1.51-.45-3.13-.88-4.79-1.28-2.24-.52-4.46-1.11-6.59-1.75-2.19-.66-4.18-1.6-5.91-2.78-1.76-1.2-3.19-2.77-4.25-4.66-1.07-1.9-1.62-4.34-1.62-7.26s.56-5.66,1.68-7.86c1.11-2.19,2.64-4.03,4.54-5.46,1.89-1.42,4.09-2.49,6.54-3.17,2.43-.67,5.05-1.01,7.79-1.01,3.1,0,6.03.3,8.72.9,2.68.59,5.17,1.38,7.41,2.34l.42.18v8l-.97-.41c-2.33-.98-4.78-1.8-7.27-2.42-2.47-.61-5.16-.94-7.98-.97-2.09,0-3.94.23-5.47.68-1.51.44-2.77,1.08-3.75,1.89-.97.8-1.69,1.77-2.16,2.91-.48,1.16-.72,2.46-.72,3.88,0,1.55.31,2.83.92,3.82.62,1.01,1.48,1.85,2.54,2.5,1.1.68,2.4,1.25,3.86,1.69,1.51.45,3.1.88,4.74,1.28,2.23.55,4.46,1.16,6.62,1.82,2.22.68,4.22,1.63,5.96,2.82,1.77,1.22,3.21,2.82,4.31,4.77,1.1,1.96,1.65,4.49,1.65,7.52s-.6,5.78-1.77,8.04c-1.18,2.25-2.83,4.13-4.9,5.58-2.05,1.43-4.51,2.51-7.3,3.2-2.77.68-5.83,1.03-9.11,1.03Z"/>
        <path d="M833.27,281.09c0,1.69.34,3.09,1.03,4.19.68,1.1,1.61,2.01,2.76,2.73,1.16.72,2.5,1.3,4.03,1.76,1.53.46,3.12.89,4.78,1.29,2.23.54,4.42,1.15,6.58,1.8,2.16.66,4.08,1.57,5.76,2.73,1.68,1.16,3.05,2.67,4.09,4.53,1.04,1.86,1.56,4.25,1.56,7.18s-.56,5.55-1.69,7.71c-1.13,2.16-2.69,3.94-4.68,5.33-1.99,1.39-4.35,2.42-7.07,3.09-2.72.67-5.7,1.01-8.94,1.01-1.49,0-3.02-.09-4.58-.28-1.56-.19-3.05-.44-4.47-.75s-2.7-.67-3.85-1.07c-1.15-.4-2.05-.8-2.71-1.2v-6.4c1.03.52,2.19.99,3.48,1.42s2.62.79,4,1.1,2.76.54,4.17.71c1.4.17,2.72.26,3.95.26,2,0,3.92-.17,5.74-.52,1.82-.34,3.42-.92,4.79-1.72,1.38-.8,2.46-1.9,3.27-3.29.8-1.39,1.2-3.13,1.2-5.22,0-1.72-.35-3.14-1.05-4.25-.7-1.12-1.64-2.04-2.81-2.77-1.17-.73-2.53-1.32-4.06-1.78-1.53-.46-3.14-.89-4.83-1.29-2.23-.52-4.42-1.1-6.55-1.74-2.13-.64-4.04-1.54-5.71-2.69-1.68-1.15-3.02-2.62-4.04-4.43-1.02-1.8-1.53-4.11-1.53-6.92s.53-5.44,1.6-7.54c1.07-2.11,2.51-3.85,4.34-5.22s3.93-2.39,6.3-3.05c2.38-.66,4.91-.99,7.61-.99,3.06,0,5.92.29,8.57.88,2.65.59,5.08,1.35,7.28,2.3v6.49c-2.38-1-4.83-1.82-7.37-2.45-2.54-.63-5.25-.96-8.14-.99-2.18,0-4.07.24-5.67.71-1.6.47-2.94,1.15-4,2.02-1.06.87-1.85,1.93-2.36,3.18s-.77,2.63-.77,4.15Z"/>
      </g>
    </g>
  </g>
</svg>