<?xml version="1.0" encoding="UTF-8"?>
<svg id="uuid-073609ae-d059-4350-92e0-83e495714803" data-name="Layer_2" xmlns="http://www.w3.org/2000/svg" viewBox="0 0 275.56 160">
  <defs>
    <style>
      .uuid-eb076d05-29e0-4c19-8eaf-741e7fd25acd {
        fill: #fff;
      }
    </style>
  </defs>
  <g id="uuid-1e2ac0de-5fa3-464e-82c2-7d4e6d8f0ab5" data-name="Layer_1">
    <g>
      <path class="uuid-eb076d05-29e0-4c19-8eaf-741e7fd25acd" d="M43.45,154.94v2.53H0v-2.53c9.66-4.6,19.31-15.17,27.59-34.48l3.56-8.19h9.66l-2.88,7.5c-7.59,19.08-3.45,29.66,5.52,35.17Z"/>
      <path class="uuid-eb076d05-29e0-4c19-8eaf-741e7fd25acd" d="M157.7,154.94v2.53h-53.79v-2.53c7.82-2.76,10.8-13.33,2.99-32.41l-4.22-10.26h27.69l4.58,10.95c7.59,18.16,13.79,25.98,22.76,31.72Z"/>
      <polyline class="uuid-eb076d05-29e0-4c19-8eaf-741e7fd25acd" points="67.68 27.66 80 0 83.45 0 114.75 74.91 87.17 74.91"/>
      <path class="uuid-eb076d05-29e0-4c19-8eaf-741e7fd25acd" d="M268.67,10.8v34.71h-2.99c-8.97-28.05-25.52-38.62-40.46-38.62s-24.6,9.89-24.6,22.76c0,22.96,25.87,31.88,47.22,45.26h-54.83c-9.01-8.03-15.37-18.25-15.37-33.07C177.63,17.47,198.78.23,226.6.23c18.85,0,32.41,4.6,42.07,10.57Z"/>
      <path class="uuid-eb076d05-29e0-4c19-8eaf-741e7fd25acd" d="M275.56,116.09c0,25.06-18.85,43.91-50.8,43.91-21.15,0-36.09-6.44-45.75-11.95v-35.78h2.79c10.12,27.3,26.88,40.83,43.65,40.83,17.93.23,26.9-11.03,26.9-24.14,0-6.61-2.08-12.02-5.57-16.7h28.62c.11,1.24.16,2.51.16,3.82Z"/>
    </g>
  </g>
</svg>