<?xml version="1.0" standalone="no"?>
<!DOCTYPE svg PUBLIC "-//W3C//DTD SVG 20010904//EN"
 "http://www.w3.org/TR/2001/REC-SVG-20010904/DTD/svg10.dtd">
<svg version="1.0" xmlns="http://www.w3.org/2000/svg"
 width="1200.000000pt" height="1200.000000pt" viewBox="0 0 1200.000000 1200.000000"
 preserveAspectRatio="xMidYMid meet">

<g transform="translate(0.000000,1200.000000) scale(0.100000,-0.100000)"
fill="#000000" stroke="none">
<path d="M10465 10965 c-322 -48 -1057 -251 -2105 -581 -582 -184 -1678 -548
-2220 -739 -1106 -389 -1724 -621 -1998 -750 -131 -63 -208 -128 -272 -234
-119 -198 -197 -525 -233 -979 -3 -42 -5 -43 -73 -76 -108 -52 -130 -86 -177
-276 -80 -322 -94 -598 -34 -689 41 -62 549 -576 837 -849 35 -33 62 -62 60
-65 -5 -3 -160 -45 -530 -142 -69 -18 -258 -69 -420 -114 -287 -78 -721 -195
-1140 -307 -275 -74 -701 -189 -830 -224 -58 -16 -242 -65 -410 -110 -168 -45
-307 -84 -309 -86 -6 -5 36 -54 123 -144 45 -47 239 -251 431 -455 191 -203
380 -404 420 -445 335 -352 1532 -1633 1896 -2030 193 -210 413 -457 493 -552
65 -79 85 -97 101 -92 20 7 704 281 1205 484 151 62 367 149 480 195 324 131
513 208 685 278 88 36 324 131 525 212 687 278 945 383 1135 460 105 42 262
106 350 142 88 36 207 84 265 108 290 118 855 346 1005 406 93 37 171 71 172
76 1 4 -104 82 -234 173 -130 91 -266 186 -302 212 -36 25 -111 78 -166 115
-55 38 -253 177 -440 308 -187 131 -367 257 -400 280 -102 70 -495 345 -586
409 -47 34 -266 187 -487 341 l-401 280 -1 75 c-1 93 -14 191 -41 294 -40 158
-111 266 -202 310 l-54 27 -17 127 c-46 340 -66 506 -87 716 -22 225 -22 229
-3 243 52 39 214 134 339 199 307 160 627 274 768 274 39 0 44 4 74 48 50 75
101 185 125 269 22 79 30 240 18 372 l-5 54 120 24 c66 13 291 53 500 88 582
98 656 111 855 154 365 78 746 212 1080 380 317 159 538 311 722 498 217 219
310 389 325 593 19 271 -196 535 -541 664 -179 67 -232 74 -391 51z m299 -54
c99 -30 225 -89 305 -144 25 -17 80 -65 122 -106 61 -61 85 -94 119 -165 40
-82 44 -97 48 -185 7 -151 -30 -266 -139 -427 -58 -88 -246 -281 -354 -366
-361 -282 -940 -543 -1520 -685 -127 -31 -370 -76 -579 -109 -921 -142 -1212
-204 -1561 -336 -490 -185 -728 -384 -801 -668 -31 -121 -8 -512 66 -1135 17
-143 35 -287 40 -320 l9 -60 -41 -37 c-22 -21 -86 -60 -141 -87 -237 -115
-529 -179 -629 -137 -113 47 -386 232 -763 516 -303 228 -386 293 -794 619
-216 174 -411 330 -433 346 l-39 30 5 160 c11 325 54 614 122 815 76 223 164
340 313 415 201 100 650 274 1498 579 575 207 1484 516 2218 755 420 136 1008
320 1330 416 328 97 348 102 445 129 553 152 834 214 976 215 62 1 103 -6 178
-28z m-3011 -2466 c14 -63 1 -261 -21 -330 -42 -129 -124 -275 -155 -275 -37
0 -175 -33 -262 -62 -229 -78 -631 -281 -827 -420 l-27 -19 -7 25 c-3 13 -4
96 -2 183 4 177 20 240 83 339 132 206 486 407 965 547 238 70 240 70 253 12z
m-4129 -933 l-6 -49 173 -144 c885 -735 1637 -1303 1876 -1417 72 -34 77 -35
161 -29 216 14 532 122 683 233 26 19 53 34 61 34 19 0 88 -45 111 -73 54 -65
116 -241 131 -373 l6 -52 -62 -55 c-226 -197 -680 -391 -989 -423 -54 -5 -76
-3 -122 15 -305 114 -973 594 -1462 1052 -92 86 -144 132 -350 309 -273 235
-347 304 -411 381 l-57 70 7 62 c13 125 87 386 124 437 18 24 94 69 120 70 9
0 11 -12 6 -48z m-243 -604 c11 -21 11 -22 -4 -9 -10 7 -17 17 -17 22 0 15 9
10 21 -13z m90 -105 c13 -16 12 -17 -3 -4 -10 7 -18 15 -18 17 0 8 8 3 21 -13z
m123 -105 c51 -46 159 -141 242 -213 134 -116 353 -313 379 -341 16 -17 195
-175 260 -230 176 -148 468 -373 605 -467 285 -194 474 -300 584 -328 65 -16
171 -6 323 31 308 76 610 216 787 363 l49 41 -6 -110 c-10 -183 -42 -286 -112
-357 -148 -151 -494 -329 -780 -403 -85 -22 -133 -28 -210 -28 -139 -1 -142 1
-541 306 -19 15 -55 44 -79 65 -23 21 -64 56 -90 78 -67 56 -414 368 -611 550
-259 238 -562 541 -556 557 1 5 -2 7 -7 6 -5 -2 -9 1 -9 5 -1 5 -12 17 -26 28
-15 11 -26 26 -26 32 0 7 -22 36 -49 65 -26 28 -46 52 -45 52 2 0 -26 44 -63
97 -36 53 -76 121 -89 150 -25 55 -42 133 -29 133 4 0 48 -37 99 -82z m5 -261
c-2 -2 -17 12 -33 32 l-30 36 34 -32 c19 -18 32 -34 29 -36z m61 -52 c13 -14
21 -25 18 -25 -2 0 -15 11 -28 25 -13 14 -21 25 -18 25 2 0 15 -11 28 -25z
m737 -788 c54 -51 122 -115 151 -142 37 -34 49 -51 40 -56 -12 -7 -524 -153
-873 -250 -195 -54 -307 -86 -375 -109 -74 -24 -116 -37 -475 -139 -170 -49
-308 -92 -305 -97 3 -4 28 -29 55 -55 l50 -47 225 65 c319 92 379 109 525 147
131 35 396 111 710 204 182 54 593 172 600 172 2 0 21 -14 40 -32 l36 -31
-352 -103 c-267 -78 -356 -101 -366 -92 -10 8 -12 8 -8 -3 4 -11 -12 -19 -62
-31 -85 -21 -314 -88 -453 -133 -101 -32 -199 -61 -604 -179 -104 -31 -191
-58 -194 -61 -19 -19 45 -3 379 94 206 60 500 145 654 190 154 45 363 106 465
137 102 30 270 80 373 110 l188 55 117 -102 c64 -57 123 -109 131 -116 8 -7
13 -15 10 -17 -2 -3 -43 -16 -89 -30 -47 -13 -139 -41 -205 -61 -150 -47 -184
-57 -315 -93 -131 -37 -405 -118 -445 -133 -36 -12 -128 -41 -460 -143 -552
-170 -517 -158 -502 -174 12 -12 57 0 313 78 264 81 450 136 472 139 13 2 332
98 432 131 167 54 388 123 480 150 58 18 163 50 233 71 l128 40 41 -33 42 -33
-150 -46 c-141 -45 -521 -162 -629 -194 -27 -8 -138 -42 -246 -75 -107 -33
-202 -60 -210 -60 -8 0 -27 -7 -44 -16 -29 -15 -576 -189 -697 -221 -32 -9
-58 -18 -58 -22 0 -4 20 -27 45 -51 l44 -44 388 118 c213 65 433 133 488 151
55 18 143 45 195 60 52 15 133 40 180 55 124 41 273 88 557 175 l251 78 71
-52 c39 -28 99 -67 133 -86 39 -21 57 -36 48 -39 -34 -12 -320 -103 -510 -163
-113 -35 -297 -93 -410 -130 -113 -36 -241 -77 -285 -91 -44 -13 -100 -33
-125 -42 -25 -10 -130 -45 -235 -78 -436 -139 -515 -164 -515 -167 0 -1 12
-10 26 -19 24 -17 29 -16 117 13 203 66 637 204 717 228 137 41 428 133 518
164 77 27 110 30 97 9 -3 -4 2 -11 11 -14 31 -12 39 -5 15 15 -13 11 -22 21
-20 23 2 2 54 20 114 39 527 169 617 196 675 202 383 39 956 332 1054 538 22
47 43 133 63 260 l8 48 110 -79 c182 -130 545 -388 805 -572 135 -95 290 -206
345 -245 55 -39 210 -150 345 -245 348 -247 754 -535 830 -590 36 -26 150
-107 253 -180 104 -73 185 -136 180 -140 -4 -4 -64 -30 -133 -57 -69 -28 -233
-94 -365 -148 -254 -103 -1368 -554 -1815 -735 -405 -164 -971 -393 -1210
-490 -118 -48 -366 -148 -550 -223 -184 -74 -387 -156 -450 -182 -156 -64
-623 -252 -913 -369 l-239 -96 -26 33 c-34 40 -225 259 -272 312 -153 169
-541 590 -764 830 -72 77 -158 169 -191 205 -34 36 -133 142 -220 235 -88 94
-257 274 -375 400 -118 127 -291 311 -385 410 -93 99 -242 256 -330 350 -88
93 -237 250 -331 350 -395 417 -453 479 -450 483 2 1 109 31 237 66 129 35
286 78 349 96 63 18 194 54 290 80 96 26 308 85 470 130 162 45 385 106 495
136 110 30 254 70 320 89 66 18 179 49 250 69 253 69 1011 278 1070 296 33 10
65 18 72 19 6 0 56 -41 110 -92z"/>
<path d="M4573 8608 c-124 -60 -214 -233 -200 -384 16 -169 128 -275 259 -245
148 34 258 195 258 377 0 115 -54 220 -134 258 -47 22 -131 20 -183 -6z m171
-130 c20 -29 20 -51 -1 -95 -21 -45 -52 -60 -92 -43 -55 22 -51 107 7 143 37
23 68 21 86 -5z"/>
<path d="M3800 5220 c8 -5 22 -10 30 -10 13 0 13 1 0 10 -8 5 -22 10 -30 10
-13 0 -13 -1 0 -10z"/>
<path d="M3742 5211 c-11 -7 -11 -9 0 -13 7 -3 19 1 26 8 10 11 10 14 0 14 -7
0 -19 -4 -26 -9z"/>
<path d="M3641 5186 c-28 -10 -31 -14 -17 -19 26 -10 38 -8 30 4 -5 8 6 10 34
7 32 -3 38 -1 30 9 -13 16 -32 15 -77 -1z"/>
<path d="M3531 5158 c-26 -7 -31 -12 -20 -19 17 -10 35 -12 25 -2 -4 4 10 13
31 19 46 14 12 16 -36 2z"/>
<path d="M3598 5143 c7 -3 16 -2 19 1 4 3 -2 6 -13 5 -11 0 -14 -3 -6 -6z"/>
<path d="M3425 5130 c-18 -8 -18 -9 5 -9 14 0 32 4 40 9 12 8 12 10 -5 9 -11
0 -29 -4 -40 -9z"/>
<path d="M3335 5105 c-24 -11 -26 -14 -9 -15 11 0 24 4 30 9 5 5 18 11 29 14
l20 5 -20 0 c-11 0 -33 -6 -50 -13z"/>
<path d="M3257 5079 c8 -8 16 -8 30 0 16 9 14 10 -11 11 -22 0 -27 -3 -19 -11z"/>
<path d="M3285 5060 c-3 -5 -2 -10 4 -10 5 0 13 5 16 10 3 6 2 10 -4 10 -5 0
-13 -4 -16 -10z"/>
<path d="M4000 5060 c-13 -8 -13 -10 2 -10 9 0 20 5 23 10 8 13 -5 13 -25 0z"/>
<path d="M3988 5033 c6 -2 18 -2 25 0 6 3 1 5 -13 5 -14 0 -19 -2 -12 -5z"/>
<path d="M4038 5023 c7 -3 16 -2 19 1 4 3 -2 6 -13 5 -11 0 -14 -3 -6 -6z"/>
<path d="M3840 4990 c-23 -7 -23 -8 -3 -9 12 -1 25 4 28 9 3 6 5 10 3 9 -2 -1
-14 -5 -28 -9z"/>
<path d="M4133 4978 c15 -5 27 -14 27 -19 0 -5 6 -9 13 -9 6 1 1 10 -12 20
-13 11 -31 20 -40 19 -9 0 -4 -5 12 -11z"/>
<path d="M3688 4973 c7 -3 16 -2 19 1 4 3 -2 6 -13 5 -11 0 -14 -3 -6 -6z"/>
<path d="M3592 4941 c-11 -6 -10 -10 0 -19 11 -8 14 -7 14 9 0 10 0 19 -1 19
0 0 -6 -4 -13 -9z"/>
<path d="M3718 4933 c7 -3 16 -2 19 1 4 3 -2 6 -13 5 -11 0 -14 -3 -6 -6z"/>
<path d="M4220 4910 c19 -16 42 -29 50 -29 9 0 8 3 -5 8 -11 5 -29 18 -39 30
-11 11 -24 21 -30 21 -5 0 5 -13 24 -30z"/>
<path d="M3470 4894 c21 -25 48 -36 56 -22 4 6 3 8 -3 5 -6 -4 -18 2 -28 13
-21 23 -44 27 -25 4z"/>
<path d="M3900 4906 c0 -2 7 -7 16 -10 8 -3 12 -2 9 4 -6 10 -25 14 -25 6z"/>
<path d="M4291 4852 c35 -27 95 -62 105 -62 9 0 -2 8 -77 57 -41 27 -62 31
-28 5z"/>
<path d="M3555 4820 c3 -5 13 -10 21 -10 8 0 12 5 9 10 -3 6 -13 10 -21 10 -8
0 -12 -4 -9 -10z"/>
<path d="M3586 4805 c-11 -8 -16 -15 -10 -15 5 0 40 -30 78 -65 38 -36 73 -65
79 -65 5 0 -23 32 -63 71 -57 55 -70 73 -59 80 8 5 10 9 4 9 -5 -1 -19 -7 -29
-15z"/>
<path d="M4310 4769 c0 -5 5 -7 10 -4 6 3 10 8 10 11 0 2 -4 4 -10 4 -5 0 -10
-5 -10 -11z"/>
<path d="M4450 4720 c18 -12 30 -13 30 -2 0 4 -10 9 -22 9 -18 2 -20 0 -8 -7z"/>
<path d="M3925 4700 c-3 -6 1 -7 9 -4 18 7 21 14 7 14 -6 0 -13 -4 -16 -10z"/>
<path d="M4460 4690 c0 -5 5 -10 10 -10 6 0 10 5 10 10 0 6 -4 10 -10 10 -5 0
-10 -4 -10 -10z"/>
<path d="M4270 4660 c8 -5 20 -10 25 -10 6 0 3 5 -5 10 -8 5 -19 10 -25 10 -5
0 -3 -5 5 -10z"/>
<path d="M3747 4654 c-12 -20 20 -38 46 -26 21 11 21 11 -5 6 -20 -4 -27 -1
-30 13 -2 12 -6 14 -11 7z"/>
<path d="M4237 4636 c-3 -8 2 -16 14 -19 15 -4 18 -2 10 7 -6 7 -8 16 -4 19 3
4 2 7 -4 7 -6 0 -13 -6 -16 -14z"/>
<path d="M3822 4624 c-7 -8 -8 -14 -3 -14 10 0 25 19 20 25 -2 1 -10 -3 -17
-11z"/>
<path d="M5940 4394 c-388 -127 -741 -244 -785 -258 -120 -38 -160 -52 -400
-133 -333 -113 -959 -323 -964 -323 -3 0 6 -11 19 -25 13 -14 29 -25 36 -25 7
0 176 54 376 119 200 66 392 128 428 138 36 9 67 20 70 23 3 4 28 12 55 19 28
7 59 17 70 22 11 4 117 41 235 80 1773 591 1630 543 1630 549 0 3 -15 14 -33
26 l-32 20 -705 -232z"/>
<path d="M4020 4587 c0 -3 15 -10 32 -16 18 -6 28 -7 23 -2 -12 10 -55 25 -55
18z"/>
<path d="M4675 4560 c-8 -13 9 -20 24 -11 10 6 9 10 -3 14 -8 3 -18 2 -21 -3z"/>
<path d="M4028 4553 c7 -3 16 -2 19 1 4 3 -2 6 -13 5 -11 0 -14 -3 -6 -6z"/>
<path d="M3860 4541 c0 -5 12 -17 28 -26 l27 -18 -24 27 c-26 28 -31 31 -31
17z"/>
<path d="M4720 4530 c20 -13 33 -13 25 0 -3 6 -14 10 -23 10 -15 0 -15 -2 -2
-10z"/>
<path d="M4758 4503 c7 -3 16 -2 19 1 4 3 -2 6 -13 5 -11 0 -14 -3 -6 -6z"/>
<path d="M4838 4440 c12 -11 27 -20 34 -20 7 0 2 9 -12 20 -33 26 -50 26 -22
0z"/>
<path d="M4810 4406 c0 -2 7 -7 16 -10 8 -3 12 -2 9 4 -6 10 -25 14 -25 6z"/>
<path d="M4064 4376 c-8 -9 -7 -15 2 -23 9 -9 13 -9 17 1 8 20 -6 36 -19 22z"/>
<path d="M4700 4386 c0 -2 7 -7 16 -10 8 -3 12 -2 9 4 -6 10 -25 14 -25 6z"/>
<path d="M4205 4370 c-3 -5 -1 -10 4 -10 6 0 11 5 11 10 0 6 -2 10 -4 10 -3 0
-8 -4 -11 -10z"/>
<path d="M6720 4295 c-135 -47 -317 -109 -405 -139 -88 -30 -286 -98 -440
-151 -154 -53 -290 -94 -302 -92 -12 2 -20 0 -17 -4 3 -5 4 -9 2 -9 -2 0 -95
-32 -208 -71 -113 -38 -227 -77 -254 -85 -26 -9 -110 -38 -185 -66 -125 -46
-798 -278 -807 -278 -13 0 0 -19 19 -29 21 -11 47 -5 218 54 107 36 417 141
689 231 272 91 509 172 527 180 17 8 36 14 42 14 6 0 19 5 29 10 9 6 62 26
117 44 133 45 766 262 930 318 72 25 180 62 240 83 61 21 112 40 114 42 7 6
-33 32 -49 32 -8 0 -125 -38 -260 -84z"/>
<path d="M4147 4301 c-16 -6 -12 -13 29 -49 49 -43 72 -50 35 -11 -12 13 -21
26 -21 31 0 4 -7 8 -16 8 -10 0 -14 6 -10 15 3 8 4 15 3 14 -1 0 -10 -4 -20
-8z"/>
<path d="M5041 4284 c0 -11 3 -14 6 -6 3 7 2 16 -1 19 -3 4 -6 -2 -5 -13z"/>
<path d="M4205 4280 c3 -5 8 -10 11 -10 2 0 4 5 4 10 0 6 -5 10 -11 10 -5 0
-7 -4 -4 -10z"/>
<path d="M4785 4270 c3 -5 8 -10 11 -10 2 0 4 5 4 10 0 6 -5 10 -11 10 -5 0
-7 -4 -4 -10z"/>
<path d="M5075 4270 c3 -5 11 -10 16 -10 6 0 7 5 4 10 -3 6 -11 10 -16 10 -6
0 -7 -4 -4 -10z"/>
<path d="M4710 4260 c-8 -5 -10 -10 -5 -10 6 0 17 5 25 10 8 5 11 10 5 10 -5
0 -17 -5 -25 -10z"/>
<path d="M7055 4243 c-38 -14 -126 -45 -195 -68 -69 -24 -231 -80 -360 -125
-384 -134 -472 -164 -750 -258 -345 -118 -704 -243 -805 -281 -44 -17 -221
-79 -393 -139 l-312 -108 29 -28 29 -28 59 22 c32 12 199 71 371 131 l314 109
86 -77 c48 -43 107 -97 132 -120 84 -77 125 -113 130 -113 3 0 6 8 6 19 0 11
-5 17 -13 14 -7 -3 -32 14 -56 36 -24 23 -53 49 -65 57 -12 8 -20 20 -16 25 3
5 2 8 -3 7 -4 -2 -9 2 -11 7 -2 6 -17 18 -35 27 -18 9 -28 17 -24 18 11 0 -19
30 -31 30 -9 0 -72 65 -72 74 0 2 15 8 33 11 17 4 45 14 61 22 17 9 57 24 90
33 34 10 106 34 161 55 55 20 123 43 150 51 58 18 206 71 250 89 17 7 84 32
150 54 66 23 190 66 275 96 85 30 245 85 355 124 485 169 610 213 613 216 4 4
-64 45 -74 44 -5 0 -40 -12 -79 -26z"/>
<path d="M4760 4250 c8 -5 22 -9 30 -9 10 0 8 3 -5 9 -27 12 -43 12 -25 0z"/>
<path d="M5117 4239 c7 -7 15 -10 18 -7 3 3 -2 9 -12 12 -14 6 -15 5 -6 -5z"/>
<path d="M5130 4205 c-8 -9 -9 -15 -2 -15 6 0 14 5 17 11 5 7 16 2 31 -12 13
-12 26 -20 30 -17 5 5 -48 48 -59 48 -2 0 -10 -7 -17 -15z"/>
<path d="M4508 4183 c7 -3 16 -2 19 1 4 3 -2 6 -13 5 -11 0 -14 -3 -6 -6z"/>
<path d="M5026 4152 c-8 -13 35 -27 56 -19 7 3 1 6 -14 6 -14 1 -28 6 -30 13
-3 9 -6 9 -12 0z"/>
<path d="M4316 4127 c3 -10 9 -15 12 -12 3 3 0 11 -7 18 -10 9 -11 8 -5 -6z"/>
<path d="M4376 4072 c104 -97 137 -122 157 -121 12 0 16 3 10 6 -15 5 -18 33
-4 33 5 0 12 -6 14 -12 4 -10 6 -10 6 -1 2 21 -22 27 -35 8 -12 -17 -18 -13
-79 44 -36 33 -71 61 -77 61 -7 0 -3 -8 8 -18z"/>
<path d="M4435 4070 c-3 -5 -1 -10 4 -10 6 0 11 5 11 10 0 6 -2 10 -4 10 -3 0
-8 -4 -11 -10z"/>
<path d="M5390 4031 c53 -48 62 -55 98 -80 18 -12 30 -27 27 -32 -4 -5 1 -6 9
-3 9 3 16 7 16 9 0 3 -136 106 -164 124 -11 7 -5 -1 14 -18z"/>
<path d="M5160 4020 c0 -5 5 -10 11 -10 5 0 7 5 4 10 -3 6 -8 10 -11 10 -2 0
-4 -4 -4 -10z"/>
<path d="M5075 4010 c-13 -5 -14 -9 -5 -9 8 0 24 4 35 9 13 5 14 9 5 9 -8 0
-24 -4 -35 -9z"/>
<path d="M4870 3940 c-8 -5 -10 -10 -5 -10 6 0 17 5 25 10 8 5 11 10 5 10 -5
0 -17 -5 -25 -10z"/>
<path d="M7450 3886 c-80 -29 -291 -106 -470 -170 -179 -65 -422 -152 -540
-195 -118 -43 -255 -92 -305 -109 -86 -28 -360 -127 -435 -157 -19 -7 -60 -22
-90 -33 -30 -11 -93 -35 -140 -52 -47 -17 -246 -91 -442 -162 -197 -72 -358
-134 -358 -137 0 -3 25 -27 54 -53 l54 -48 358 130 c196 72 364 132 373 134 9
2 23 6 31 9 8 3 67 25 130 47 63 23 131 47 150 55 95 37 259 95 269 95 6 0 19
4 29 9 30 17 453 172 1332 491 118 42 230 84 249 91 l34 15 -57 42 c-31 23
-62 44 -68 47 -7 2 -78 -20 -158 -49z"/>
<path d="M5465 3900 c-8 -13 5 -13 25 0 13 8 13 10 -2 10 -9 0 -20 -4 -23 -10z"/>
<path d="M5360 3870 c0 -5 5 -10 10 -10 6 0 10 5 10 10 0 6 -4 10 -10 10 -5 0
-10 -4 -10 -10z"/>
<path d="M4611 3862 c1 -4 28 -32 62 -62 33 -30 56 -46 50 -35 -5 11 -8 30 -8
42 1 12 -1 20 -6 17 -4 -2 -5 -12 -2 -22 5 -12 -1 -10 -23 8 -21 17 -27 28
-20 33 7 6 4 7 -6 3 -10 -3 -18 -1 -18 3 0 5 -7 11 -15 15 -8 3 -14 2 -14 -2z"/>
<path d="M4670 3860 c8 -5 22 -10 30 -10 13 0 13 1 0 10 -8 5 -22 10 -30 10
-13 0 -13 -1 0 -10z"/>
<path d="M5218 3813 c7 -3 16 -2 19 1 4 3 -2 6 -13 5 -11 0 -14 -3 -6 -6z"/>
<path d="M5692 3804 c10 -10 20 -16 22 -13 3 3 -5 11 -17 18 -21 13 -21 12 -5
-5z"/>
<path d="M4762 3723 c15 -15 30 -24 34 -20 7 7 -35 46 -51 47 -5 0 3 -12 17
-27z"/>
<path d="M4928 3713 c6 -2 18 -2 25 0 6 3 1 5 -13 5 -14 0 -19 -2 -12 -5z"/>
<path d="M5245 3710 c-13 -6 -15 -9 -5 -9 8 0 22 4 30 9 18 12 2 12 -25 0z"/>
<path d="M5834 3681 c32 -17 61 -31 65 -31 11 0 -49 44 -63 46 -7 1 -24 5 -37
9 -13 3 3 -7 35 -24z"/>
<path d="M5280 3689 c0 -5 5 -7 10 -4 6 3 10 8 10 11 0 2 -4 4 -10 4 -5 0 -10
-5 -10 -11z"/>
<path d="M4816 3676 c10 -8 21 -12 24 -10 5 6 -21 24 -34 24 -6 0 -1 -6 10
-14z"/>
<path d="M7880 3658 c-161 -61 -905 -337 -1100 -408 -124 -46 -272 -101 -330
-123 -69 -27 -120 -41 -150 -40 -30 0 -38 -2 -25 -7 17 -6 15 -9 -19 -24 -21
-9 -40 -16 -42 -16 -8 0 -375 -138 -544 -204 -102 -40 -286 -110 -410 -156
-124 -45 -236 -87 -249 -92 l-24 -9 28 -29 c16 -17 36 -30 45 -30 9 0 171 58
361 128 189 71 369 137 399 147 51 16 148 52 630 233 102 39 487 183 855 321
369 139 685 258 704 265 l34 13 -39 27 c-46 31 -53 31 -124 4z"/>
<path d="M5210 3660 c-9 -6 -10 -10 -3 -10 6 0 15 5 18 10 8 12 4 12 -15 0z"/>
<path d="M5230 3640 c-8 -5 -10 -10 -5 -10 6 0 17 5 25 10 8 5 11 10 5 10 -5
0 -17 -5 -25 -10z"/>
<path d="M5590 3630 c-8 -5 -10 -10 -5 -10 6 0 17 5 25 10 8 5 11 10 5 10 -5
0 -17 -5 -25 -10z"/>
<path d="M5910 3629 c0 -5 5 -7 12 -3 7 5 9 2 5 -9 -4 -11 -2 -14 7 -11 11 4
77 -42 96 -68 3 -4 19 -12 35 -18 35 -13 31 -10 -50 51 -33 24 -66 50 -73 57
-16 15 -32 16 -32 1z"/>
<path d="M4960 3600 c0 -6 -5 -8 -12 -4 -7 4 -8 3 -4 -4 4 -7 3 -12 -3 -12 -5
0 -13 5 -16 10 -3 6 -12 10 -18 10 -7 0 4 -14 23 -30 37 -32 55 -37 66 -19 4
7 0 9 -14 5 -22 -7 -37 7 -26 25 5 8 9 8 14 -1 4 -7 10 -8 13 -4 3 5 -1 15 -9
22 -9 8 -14 9 -14 2z"/>
<path d="M5028 3603 c7 -3 16 -2 19 1 4 3 -2 6 -13 5 -11 0 -14 -3 -6 -6z"/>
<path d="M5588 3603 c7 -3 16 -2 19 1 4 3 -2 6 -13 5 -11 0 -14 -3 -6 -6z"/>
<path d="M5078 3583 c7 -3 16 -2 19 1 4 3 -2 6 -13 5 -11 0 -14 -3 -6 -6z"/>
<path d="M5975 3540 c3 -5 8 -10 11 -10 2 0 4 5 4 10 0 6 -5 10 -11 10 -5 0
-7 -4 -4 -10z"/>
<path d="M6114 3485 c8 -8 18 -15 22 -15 3 0 1 7 -6 15 -7 8 -17 15 -22 15 -5
0 -3 -7 6 -15z"/>
<path d="M6150 3461 c0 -5 7 -12 16 -15 14 -5 15 -4 4 9 -14 17 -20 19 -20 6z"/>
<path d="M8070 3404 c-276 -108 -1059 -405 -1350 -514 -63 -24 -137 -52 -165
-62 -27 -11 -66 -26 -85 -34 -19 -7 -60 -23 -90 -34 -30 -12 -89 -34 -130 -49
-41 -16 -112 -43 -158 -60 -81 -30 -84 -30 -107 -13 -31 22 -32 37 -2 21 20
-11 21 -11 8 5 -8 9 -21 14 -29 11 -20 -7 -52 23 -45 43 3 12 2 13 -4 5 -7
-10 -19 -4 -46 22 -20 19 -42 35 -49 35 -12 0 20 -31 115 -111 31 -27 56 -52
55 -56 -2 -7 -147 -65 -576 -228 -84 -32 -149 -61 -145 -65 4 -3 33 -30 64
-58 l55 -51 125 48 c292 113 534 205 621 235 99 35 283 105 653 249 127 49
309 120 405 157 96 37 400 154 675 259 275 105 508 195 519 199 15 7 7 16 -53
60 -39 29 -77 51 -84 51 -6 -1 -86 -30 -177 -65z"/>
<path d="M5263 3340 c-1 -11 1 -22 5 -24 4 -2 8 7 8 20 1 13 -1 24 -5 24 -4 0
-7 -9 -8 -20z"/>
<path d="M5810 3340 c8 -5 20 -10 25 -10 6 0 3 5 -5 10 -8 5 -19 10 -25 10 -5
0 -3 -5 5 -10z"/>
<path d="M6343 3304 c0 -8 6 -14 14 -14 7 0 13 4 13 9 0 5 -6 11 -13 14 -8 3
-14 -1 -14 -9z"/>
<path d="M5628 3253 c7 -3 16 -2 19 1 4 3 -2 6 -13 5 -11 0 -14 -3 -6 -6z"/>
<path d="M6210 3250 c-8 -5 -10 -10 -5 -10 6 0 17 5 25 10 8 5 11 10 5 10 -5
0 -17 -5 -25 -10z"/>
<path d="M6424 3245 c26 -19 42 -19 26 0 -7 8 -20 15 -29 15 -13 -1 -13 -3 3
-15z"/>
<path d="M6470 3223 c0 -14 51 -55 58 -48 4 4 -1 11 -10 16 -9 5 -24 16 -33
25 -8 8 -15 11 -15 7z"/>
<path d="M5718 3083 c7 -3 16 -2 19 1 4 3 -2 6 -13 5 -11 0 -14 -3 -6 -6z"/>
<path d="M6672 3054 c-14 -16 -5 -18 17 -5 7 5 9 11 5 14 -5 3 -15 -1 -22 -9z"/>
<path d="M6719 3033 c6 -12 16 -25 21 -28 17 -11 11 5 -11 28 l-21 22 11 -22z"/>
<path d="M6058 3033 c7 -3 16 -2 19 1 4 3 -2 6 -13 5 -11 0 -14 -3 -6 -6z"/>
<path d="M5559 3006 c24 -26 41 -33 41 -18 0 4 -15 15 -33 25 l-32 19 24 -26z"/>
<path d="M6000 3020 c0 -5 4 -10 9 -10 6 0 13 5 16 10 3 6 -1 10 -9 10 -9 0
-16 -4 -16 -10z"/>
<path d="M6026 3001 c-4 -5 3 -7 14 -4 23 6 26 13 6 13 -8 0 -17 -4 -20 -9z"/>
<path d="M6428 2993 c7 -3 16 -2 19 1 4 3 -2 6 -13 5 -11 0 -14 -3 -6 -6z"/>
<path d="M6755 2990 c-3 -6 1 -7 9 -4 18 7 21 14 7 14 -6 0 -13 -4 -16 -10z"/>
<path d="M6458 2973 c7 -3 16 -2 19 1 4 3 -2 6 -13 5 -11 0 -14 -3 -6 -6z"/>
<path d="M6802 2964 c10 -10 20 -15 24 -12 3 4 -5 12 -18 18 -22 12 -22 12 -6
-6z"/>
<path d="M5650 2921 c30 -28 59 -51 63 -51 11 0 -91 93 -107 99 -6 2 14 -20
44 -48z"/>
<path d="M6408 2963 c7 -3 16 -2 19 1 4 3 -2 6 -13 5 -11 0 -14 -3 -6 -6z"/>
<path d="M5820 2950 c-9 -6 -10 -10 -3 -10 6 0 15 5 18 10 8 12 4 12 -15 0z"/>
<path d="M5895 2950 c-16 -7 -17 -9 -3 -9 9 -1 20 4 23 9 7 11 7 11 -20 0z"/>
<path d="M5690 2920 c0 -5 5 -10 11 -10 5 0 7 5 4 10 -3 6 -8 10 -11 10 -2 0
-4 -4 -4 -10z"/>
<path d="M6690 2900 c-9 -6 -10 -10 -3 -10 6 0 15 5 18 10 8 12 4 12 -15 0z"/>
<path d="M6278 2893 c7 -3 16 -2 19 1 4 3 -2 6 -13 5 -11 0 -14 -3 -6 -6z"/>
<path d="M6118 2883 c7 -3 16 -2 19 1 4 3 -2 6 -13 5 -11 0 -14 -3 -6 -6z"/>
<path d="M6510 2840 c0 -5 5 -10 10 -10 6 0 10 5 10 10 0 6 -4 10 -10 10 -5 0
-10 -4 -10 -10z"/>
<path d="M5948 2813 c7 -3 16 -2 19 1 4 3 -2 6 -13 5 -11 0 -14 -3 -6 -6z"/>
<path d="M5895 2800 c-13 -6 -15 -9 -5 -9 8 0 22 4 30 9 18 12 2 12 -25 0z"/>
<path d="M7040 2793 c0 -13 38 -43 54 -43 6 0 -1 8 -14 17 -14 9 -28 22 -32
27 -5 8 -8 7 -8 -1z"/>
<path d="M6298 2783 c7 -3 16 -2 19 1 4 3 -2 6 -13 5 -11 0 -14 -3 -6 -6z"/>
<path d="M6348 2773 c7 -3 16 -2 19 1 4 3 -2 6 -13 5 -11 0 -14 -3 -6 -6z"/>
<path d="M7121 2720 c26 -21 12 -27 -24 -9 -20 9 -20 9 -5 -4 16 -13 16 -15
-6 -27 -13 -7 -29 -9 -35 -5 -7 3 -10 1 -9 -7 2 -7 -8 -14 -21 -16 -13 -2 -31
-10 -39 -19 -9 -9 -24 -12 -41 -8 -21 4 -23 3 -11 -6 12 -9 11 -10 -7 -6 -14
3 -21 0 -20 -7 1 -6 -10 -10 -28 -9 -20 2 -25 -1 -16 -6 9 -6 10 -11 2 -15 -6
-4 -15 -4 -21 -1 -5 3 -10 2 -10 -3 0 -15 -51 -33 -74 -27 -15 5 -17 4 -7 -3
10 -7 1 -14 -35 -28 -27 -10 -51 -21 -54 -24 -12 -13 -62 -30 -72 -24 -7 4 -8
2 -4 -5 5 -8 1 -11 -16 -8 -12 2 -17 2 -10 0 26 -9 -168 -89 -235 -98 -31 -5
-39 2 -34 28 1 5 -3 5 -9 2 -6 -4 -20 3 -31 16 -10 12 -19 19 -19 14 0 -4 -10
5 -22 21 -13 16 -22 32 -21 36 2 5 0 8 -5 9 -4 0 -15 2 -25 4 -28 5 -19 -6 74
-89 l87 -76 118 53 c66 30 142 64 169 77 28 12 78 35 113 51 35 16 65 29 68
29 2 0 41 18 86 39 46 22 103 48 128 59 25 10 73 32 107 47 l63 28 -30 19
c-40 24 -48 23 -19 -2z"/>
<path d="M5970 2716 c0 -4 7 -14 15 -22 8 -9 15 -11 15 -6 0 5 -7 15 -15 22
-8 7 -15 9 -15 6z"/>
<path d="M6188 2713 c7 -3 16 -2 19 1 4 3 -2 6 -13 5 -11 0 -14 -3 -6 -6z"/>
<path d="M6698 2683 c7 -3 16 -2 19 1 4 3 -2 6 -13 5 -11 0 -14 -3 -6 -6z"/>
<path d="M6810 2599 c0 -5 5 -7 10 -4 6 3 10 8 10 11 0 2 -4 4 -10 4 -5 0 -10
-5 -10 -11z"/>
<path d="M6680 2530 c-9 -6 -10 -10 -3 -10 6 0 15 5 18 10 8 12 4 12 -15 0z"/>
<path d="M6223 2473 c-15 -5 -17 -23 -4 -23 5 0 11 7 15 15 3 8 4 15 3 14 -1
0 -8 -3 -14 -6z"/>
<path d="M6500 2439 c0 -5 5 -7 10 -4 6 3 10 8 10 11 0 2 -4 4 -10 4 -5 0 -10
-5 -10 -11z"/>
</g>
</svg>
